#!OML:ASF I:\Actors\actors\Patient Classification 2\Patient 1\Session 1\actor1.ASF
:FULLY-SPECIFIED
:DEGREES
792
root -0.665436 18.6875 5.69776 2.36782 -3.45149 -0.492124
lowerback 5.38111 1.20454 -1.96185
upperback -5.34905 1.46338 0.383681
thorax -8.72363 0.851962 1.31736
lowerneck -7.74264 -0.782036 0.725238
upperneck 23.1914 -1.21605 -0.0293158
head 8.46535 -0.517699 -0.24862
rclavicle -1.70768e-014 -8.54774e-015
rhumerus -51.061 -3.95313 -82.7291
rradius 40.8515
rwrist 10.5235
rhand -8.71231 -32.1611
rfingers 7.12502
rthumb 17.2233 -61.4178
lclavicle -1.70768e-014 -8.54774e-015
lhumerus -46.4741 0.848258 88.9454
lradius 39.5846
lwrist 1.97229
lhand -10.348 -20.5799
lfingers 7.12502
lthumb 15.6485 8.80723
rfemur 0 0 0
rtibia 0
rfoot 0 0
rtoes 0
lfemur -3.67909 -4.61301 -14.037
ltibia 20.3111
lfoot -24.5373 17.635
ltoes -54.6324
793
root -0.666968 18.6882 5.70054 2.36541 -3.50685 -0.530095
lowerback 5.33123 1.21351 -1.96646
upperback -5.3382 1.47576 0.380453
thorax -8.68293 0.857807 1.316
lowerneck -7.77315 -0.778954 0.77474
upperneck 23.2325 -1.21559 -0.0520879
head 8.48453 -0.5153 -0.264951
rclavicle -2.19906e-014 1.98785e-016
rhumerus -51.0933 -3.62089 -83.1602
rradius 40.8387
rwrist 10.9161
rhand -9.02906 -31.3313
rfingers 7.12502
rthumb 16.9185 -60.6144
lclavicle -2.19906e-014 1.98785e-016
lhumerus -46.4781 0.655472 89.0507
lradius 39.5729
lwrist 1.95389
lhand -10.2156 -20.6336
lfingers 7.12502
lthumb 15.7761 8.74354
rfemur 0 0 0
rtibia 0
rfoot 0 0
rtoes 0
lfemur -3.66144 -4.56551 -13.9913
ltibia 20.3185
lfoot -24.5192 17.6636
ltoes -54.6797
794
root -0.668033 18.689 5.70204 2.37662 -3.54692 -0.535745
lowerback 5.27068 1.20391 -2.0154
upperback -5.33121 1.45974 0.383507
thorax -8.64059 0.852792 1.34999
lowerneck -7.77546 -0.758457 0.792319
upperneck 23.2577 -1.18702 -0.0662294
head 8.49345 -0.501665 -0.270094
rclavicle 1.04362e-015 -5.76476e-015
rhumerus -51.1201 -3.27151 -83.571
rradius 40.6388
rwrist 11.7246
rhand -9.90128 -30.7328
rfingers 7.12502
rthumb 16.0787 -60.0857
lclavicle 1.04362e-015 -5.76476e-015
lhumerus -46.473 0.615365 89.1079
lradius 39.5219
lwrist 1.84622
lhand -10.1007 -20.62
lfingers 7.12502
lthumb 15.8867 8.74834
rfemur 0 0 0
rtibia 0
rfoot 0 0
rtoes 0
lfemur -3.6652 -4.52582 -13.9833
ltibia 20.326
lfoot -24.5202 17.7091
ltoes -54.7727
795
root -0.668108 18.6892 5.70321 2.37459 -3.5785 -0.553027
lowerback 5.2226 1.18894 -2.04062
upperback -5.31724 1.43891 0.391323
thorax -8.59716 0.84402 1.37613
lowerneck -7.77986 -0.732781 0.739258
upperneck 23.2772 -1.15496 -0.0120527
head 8.50176 -0.485707 -0.239979
rclavicle -2.3643e-014 -1.02374e-014
rhumerus -51.1262 -3.0469 -83.8609
rradius 40.4514
rwrist 12.1782
rhand -10.3393 -30.4987
rfingers 7.12502
rthumb 15.6569 -59.8852
lclavicle -2.3643e-014 -1.02374e-014
lhumerus -46.4589 0.702802 89.1154
lradius 39.4263
lwrist 1.60199
lhand -10.0794 -20.6908
lfingers 7.12502
lthumb 15.9072 8.67593
rfemur 0 0 0
rtibia 0
rfoot 0 0
rtoes 0
lfemur -3.63921 -4.54808 -13.9744
ltibia 20.3158
lfoot -24.5835 17.7646
ltoes -54.7635
796
root -0.668787 18.6886 5.70378 2.38855 -3.61817 -0.580446
lowerback 5.17325 1.18619 -2.05204
upperback -5.31388 1.43532 0.393248
thorax -8.56468 0.842777 1.386
lowerneck -7.77409 -0.708606 0.690121
upperneck 23.2876 -1.13197 0.0706432
head 8.5052 -0.470877 -0.201713
rclavicle -4.33599e-015 -4.96962e-016
rhumerus -51.1908 -2.8391 -84.1928
rradius 40.5686
rwrist 12.1626
rhand -10.1956 -30.263
rfingers 7.12502
rthumb 15.7953 -59.6385
lclavicle -4.33599e-015 -4.96962e-016
lhumerus -46.4455 0.78018 89.1066
lradius 39.3267
lwrist 1.35434
lhand -10.1215 -20.8713
lfingers 7.12502
lthumb 15.8667 8.49864
rfemur 0 0 0
rtibia 0
rfoot 0 0
rtoes 0
lfemur -3.62596 -4.58133 -13.9516
ltibia 20.2981
lfoot -24.6463 17.8039
ltoes -54.7057
797
root -0.669355 18.6882 5.7043 2.44221 -3.66167 -0.587792
lowerback 5.08537 1.18854 -2.08455
upperback -5.32324 1.43703 0.38998
thorax -8.52411 0.845308 1.4021
lowerneck -7.75623 -0.683212 0.675224
upperneck 23.2869 -1.10679 0.127228
head 8.50225 -0.454699 -0.177708
rclavicle 2.52208e-014 -2.78299e-015
rhumerus -51.2711 -2.58143 -84.5838
rradius 40.8323
rwrist 12.1968
rhand -9.96834 -29.7086
rfingers 7.12502
rthumb 16.0141 -59.0668
lclavicle 2.52208e-014 -2.78299e-015
lhumerus -46.4355 0.798637 89.1213
lradius 39.2471
lwrist 1.1553
lhand -10.136 -21.0045
lfingers 7.12502
lthumb 15.8527 8.3665
rfemur 0 0 0
rtibia 0
rfoot 0 0
rtoes 0
lfemur -3.66554 -4.55323 -13.941
ltibia 20.2885
lfoot -24.6723 17.7795
ltoes -54.6624
